# xmcd
#
# Track frame offsets:
#	150
#	26025
#	39313
#	55500
#	73897
#	95784
#	112450
#	136686
#
# Disc length: 2371 seconds
#
# Revision: 0
# Processed by: cddbd v1.5.2PL0 Copyright (c) Steve Scherf et al.
# Submitted via: EasyCDDAExtractor 12.0.1.1
#
DISCID=71094108
DTITLE=Lot Lorien and Theodosii Spassov - Live In Ohrid
DYEAR=2003
DGENRE=Valse
TTITLE0=Mila Moya Mayno Lyo
TTITLE1=Awakening
TTITLE2=Mary Mariiko
TTITLE3=Legends
TTITLE4=The Moon
TTITLE5=The Rock
TTITLE6=The Beginning
TTITLE7=Captain Petko Voivode
EXTD=
EXTT0=
EXTT1=
EXTT2=
EXTT3=
EXTT4=
EXTT5=
EXTT6=
EXTT7=
PLAYORDER=
